<svg id="SvgjsSvg1006" width="1118" height="542" xmlns="http://www.w3.org/2000/svg" version="1.1" xmlns:xlink="http://www.w3.org/1999/xlink" xmlns:svgjs="http://svgjs.com/svgjs"><defs id="SvgjsDefs1007"><pattern patternUnits="userSpaceOnUse" id="pattern_mark_0" width="300" height="300"><text x="150" y="100" fill="rgba(229,229,229,0.8)" font-size="18" transform="rotate(-45, 150, 150)" style="dominant-baseline: middle; text-anchor: middle;"></text></pattern><pattern patternUnits="userSpaceOnUse" id="pattern_mark_1" width="300" height="300"><text x="150" y="200" fill="rgba(229,229,229,0.8)" font-size="18" transform="rotate(-45, 150, 150)" style="dominant-baseline: middle; text-anchor: middle;"></text></pattern><marker id="SvgjsMarker1037" markerWidth="13" markerHeight="9" refX="9.5" refY="4.5" viewBox="0 0 13 9" orient="auto" markerUnits="userSpaceOnUse" stroke-dasharray="0,0"><path id="SvgjsPath1038" d="M0,0 L13,4.5 L0,9 L0,0" fill="#323232" stroke="#323232" stroke-width="1"></path></marker><marker id="SvgjsMarker1041" markerWidth="13" markerHeight="9" refX="9.5" refY="4.5" viewBox="0 0 13 9" orient="auto" markerUnits="userSpaceOnUse" stroke-dasharray="0,0"><path id="SvgjsPath1042" d="M0,0 L13,4.5 L0,9 L0,0" fill="#323232" stroke="#323232" stroke-width="1"></path></marker><marker id="SvgjsMarker1057" markerWidth="13" markerHeight="9" refX="9.5" refY="4.5" viewBox="0 0 13 9" orient="auto" markerUnits="userSpaceOnUse" stroke-dasharray="0,0"><path id="SvgjsPath1058" d="M0,0 L13,4.5 L0,9 L0,0" fill="#323232" stroke="#323232" stroke-width="1"></path></marker><marker id="SvgjsMarker1073" markerWidth="13" markerHeight="9" refX="9.5" refY="4.5" viewBox="0 0 13 9" orient="auto" markerUnits="userSpaceOnUse" stroke-dasharray="0,0"><path id="SvgjsPath1074" d="M0,0 L13,4.5 L0,9 L0,0" fill="#323232" stroke="#323232" stroke-width="1"></path></marker><marker id="SvgjsMarker1095" markerWidth="13" markerHeight="9" refX="9.5" refY="4.5" viewBox="0 0 13 9" orient="auto" markerUnits="userSpaceOnUse" stroke-dasharray="0,0"><path id="SvgjsPath1096" d="M0,0 L13,4.5 L0,9 L0,0" fill="#323232" stroke="#323232" stroke-width="1"></path></marker><marker id="SvgjsMarker1099" markerWidth="13" markerHeight="9" refX="9.5" refY="4.5" viewBox="0 0 13 9" orient="auto" markerUnits="userSpaceOnUse" stroke-dasharray="0,0"><path id="SvgjsPath1100" d="M0,0 L13,4.5 L0,9 L0,0" fill="#323232" stroke="#323232" stroke-width="1"></path></marker><marker id="SvgjsMarker1103" markerWidth="13" markerHeight="9" refX="9.5" refY="4.5" viewBox="0 0 13 9" orient="auto" markerUnits="userSpaceOnUse" stroke-dasharray="0,0"><path id="SvgjsPath1104" d="M0,0 L13,4.5 L0,9 L0,0" fill="#323232" stroke="#323232" stroke-width="1"></path></marker><marker id="SvgjsMarker1111" markerWidth="13" markerHeight="9" refX="9.5" refY="4.5" viewBox="0 0 13 9" orient="auto" markerUnits="userSpaceOnUse" stroke-dasharray="0,0"><path id="SvgjsPath1112" d="M0,0 L13,4.5 L0,9 L0,0" fill="#323232" stroke="#323232" stroke-width="1"></path></marker><marker id="SvgjsMarker1115" markerWidth="13" markerHeight="9" refX="9.5" refY="4.5" viewBox="0 0 13 9" orient="auto" markerUnits="userSpaceOnUse" stroke-dasharray="0,0"><path id="SvgjsPath1116" d="M0,0 L13,4.5 L0,9 L0,0" fill="#323232" stroke="#323232" stroke-width="1"></path></marker><marker id="SvgjsMarker1167" markerWidth="13" markerHeight="9" refX="9.5" refY="4.5" viewBox="0 0 13 9" orient="auto" markerUnits="userSpaceOnUse" stroke-dasharray="0,0"><path id="SvgjsPath1168" d="M0,0 L13,4.5 L0,9 L0,0" fill="#323232" stroke="#323232" stroke-width="1"></path></marker><marker id="SvgjsMarker1171" markerWidth="13" markerHeight="9" refX="9.5" refY="4.5" viewBox="0 0 13 9" orient="auto" markerUnits="userSpaceOnUse" stroke-dasharray="0,0"><path id="SvgjsPath1172" d="M0,0 L13,4.5 L0,9 L0,0" fill="#323232" stroke="#323232" stroke-width="1"></path></marker></defs><rect id="svgbackgroundid" width="1118" height="542" fill="transparent"></rect><rect id="SvgjsRect1009" width="1118" height="542" fill="url(#pattern_mark_0)"></rect><rect id="SvgjsRect1010" width="1118" height="542" fill="url(#pattern_mark_1)"></rect><g id="SvgjsG1011" transform="translate(25,205)"><path id="SvgjsPath1012" d="M 0 4Q 0 0 4 0L 114 0Q 118 0 118 4L 118 50Q 118 54 114 54L 4 54Q 0 54 0 50Z" stroke="rgba(33,41,48,1)" stroke-width="1.5" fill-opacity="1" fill="#ffffff"></path><g id="SvgjsG1013"><text id="SvgjsText1014" font-family="微软雅黑" text-anchor="middle" font-size="15px" width="98px" fill="#323232" font-weight="400" align="middle" lineHeight="125%" anchor="middle" family="微软雅黑" size="15px" weight="400" font-style="" opacity="1" y="14.625" transform="rotate(0)"><tspan id="SvgjsTspan1015" dy="18" x="59"><tspan id="SvgjsTspan1016" style="text-decoration:;">Topic(主题)</tspan></tspan></text></g></g><g id="SvgjsG1017" transform="translate(223.5,99)"><path id="SvgjsPath1018" d="M 0 4Q 0 0 4 0L 155 0Q 159 0 159 4L 159 50Q 159 54 155 54L 4 54Q 0 54 0 50Z" stroke="rgba(33,41,48,1)" stroke-width="1.5" fill-opacity="1" fill="#ffffff"></path><g id="SvgjsG1019"><text id="SvgjsText1020" font-family="微软雅黑" text-anchor="middle" font-size="15px" width="139px" fill="#323232" font-weight="400" align="middle" lineHeight="125%" anchor="middle" family="微软雅黑" size="15px" weight="400" font-style="" opacity="1" y="14.625" transform="rotate(0)"><tspan id="SvgjsTspan1021" dy="18" x="79.5"><tspan id="SvgjsTspan1022" style="text-decoration:;">Partition(分区)</tspan></tspan></text></g></g><g id="SvgjsG1023" transform="translate(223.5,151)"><path id="SvgjsPath1024" d="M 0 4Q 0 0 4 0L 155 0Q 159 0 159 4L 159 50Q 159 54 155 54L 4 54Q 0 54 0 50Z" stroke="rgba(33,41,48,1)" stroke-width="1.5" fill-opacity="1" fill="#ffffff"></path><g id="SvgjsG1025"><text id="SvgjsText1026" font-family="微软雅黑" text-anchor="middle" font-size="15px" width="139px" fill="#323232" font-weight="400" align="middle" lineHeight="125%" anchor="middle" family="微软雅黑" size="15px" weight="400" font-style="" opacity="1" y="14.625" transform="rotate(0)"><tspan id="SvgjsTspan1027" dy="18" x="79.5"><tspan id="SvgjsTspan1028" style="text-decoration:;">Partition(分区)</tspan></tspan></text></g></g><g id="SvgjsG1029" transform="translate(223.5,301)"><path id="SvgjsPath1030" d="M 0 4Q 0 0 4 0L 155 0Q 159 0 159 4L 159 50Q 159 54 155 54L 4 54Q 0 54 0 50Z" stroke="rgba(33,41,48,1)" stroke-width="1.5" fill-opacity="1" fill="#ffffff"></path><g id="SvgjsG1031"><text id="SvgjsText1032" font-family="微软雅黑" text-anchor="middle" font-size="15px" width="139px" fill="#323232" font-weight="400" align="middle" lineHeight="125%" anchor="middle" family="微软雅黑" size="15px" weight="400" font-style="" opacity="1" y="14.625" transform="rotate(0)"><tspan id="SvgjsTspan1033" dy="18" x="79.5"><tspan id="SvgjsTspan1034" style="text-decoration:;">Partition(分区)</tspan></tspan></text></g></g><g id="SvgjsG1035"><path id="SvgjsPath1036" d="M141.88388266703026 205.88049083058758L221.58218839581485 126.90052588797226" stroke="#323232" stroke-width="1.5" fill="none" marker-end="url(#SvgjsMarker1037)"></path></g><g id="SvgjsG1039"><path id="SvgjsPath1040" d="M138.82875468462368 259.47183534337836L221.40125431334383 326.30139276383795" stroke="#323232" stroke-width="1.5" fill="none" marker-end="url(#SvgjsMarker1041)"></path></g><g id="SvgjsG1043" transform="translate(253,205)"><path id="SvgjsPath1044" d="M 0 0L 100 0L 100 40L 0 40Z" stroke="none" fill="none"></path><g id="SvgjsG1045"><text id="SvgjsText1046" font-family="微软雅黑" text-anchor="middle" font-size="15px" width="100px" fill="#323232" font-weight="700" align="middle" lineHeight="125%" anchor="middle" family="微软雅黑" size="15px" weight="700" font-style="" opacity="1" y="7.625" transform="rotate(0)"><tspan id="SvgjsTspan1047" dy="18" x="50"><tspan id="SvgjsTspan1048" style="text-decoration:;">......</tspan></tspan></text></g></g><g id="SvgjsG1049" transform="translate(455.5,25)"><path id="SvgjsPath1050" d="M 0 4Q 0 0 4 0L 155 0Q 159 0 159 4L 159 50Q 159 54 155 54L 4 54Q 0 54 0 50Z" stroke="rgba(33,41,48,1)" stroke-width="1.5" fill-opacity="1" fill="#ffffff"></path><g id="SvgjsG1051"><text id="SvgjsText1052" font-family="微软雅黑" text-anchor="middle" font-size="15px" width="139px" fill="#323232" font-weight="400" align="middle" lineHeight="125%" anchor="middle" family="微软雅黑" size="15px" weight="400" font-style="" opacity="1" y="14.625" transform="rotate(0)"><tspan id="SvgjsTspan1053" dy="18" x="79.5"><tspan id="SvgjsTspan1054" style="text-decoration:;">Replica(副本)</tspan></tspan></text></g></g><g id="SvgjsG1055"><path id="SvgjsPath1056" d="M383.0267102110838 125.46607458054518L453.6038432400982 53.92213151003742" stroke="#323232" stroke-width="1.5" fill="none" marker-end="url(#SvgjsMarker1057)"></path></g><g id="SvgjsG1059" transform="translate(455.5,80)"><path id="SvgjsPath1060" d="M 0 4Q 0 0 4 0L 155 0Q 159 0 159 4L 159 50Q 159 54 155 54L 4 54Q 0 54 0 50Z" stroke="rgba(33,41,48,1)" stroke-width="1.5" fill-opacity="1" fill="#ffffff"></path><g id="SvgjsG1061"><text id="SvgjsText1062" font-family="微软雅黑" text-anchor="middle" font-size="15px" width="139px" fill="#323232" font-weight="400" align="middle" lineHeight="125%" anchor="middle" family="微软雅黑" size="15px" weight="400" font-style="" opacity="1" y="14.625" transform="rotate(0)"><tspan id="SvgjsTspan1063" dy="18" x="79.5"><tspan id="SvgjsTspan1064" style="text-decoration:;">Replica(副本)</tspan></tspan></text></g></g><g id="SvgjsG1065" transform="translate(455.5,136)"><path id="SvgjsPath1066" d="M 0 4Q 0 0 4 0L 155 0Q 159 0 159 4L 159 50Q 159 54 155 54L 4 54Q 0 54 0 50Z" stroke="rgba(33,41,48,1)" stroke-width="1.5" fill-opacity="1" fill="#ffffff"></path><g id="SvgjsG1067"><text id="SvgjsText1068" font-family="微软雅黑" text-anchor="middle" font-size="15px" width="139px" fill="#323232" font-weight="400" align="middle" lineHeight="125%" anchor="middle" family="微软雅黑" size="15px" weight="400" font-style="" opacity="1" y="14.625" transform="rotate(0)"><tspan id="SvgjsTspan1069" dy="18" x="79.5"><tspan id="SvgjsTspan1070" style="text-decoration:;">Replica(副本)</tspan></tspan></text></g></g><g id="SvgjsG1071"><path id="SvgjsPath1072" d="M383.16897756270055 126.33907081945097L453.09168077427785 161.77934504997643" stroke="#323232" stroke-width="1.5" fill="none" marker-end="url(#SvgjsMarker1073)"></path></g><g id="SvgjsG1075" transform="translate(751.5,25)"><path id="SvgjsPath1076" d="M 0 4Q 0 0 4 0L 155 0Q 159 0 159 4L 159 50Q 159 54 155 54L 4 54Q 0 54 0 50Z" stroke="rgba(33,41,48,1)" stroke-width="1.5" fill-opacity="1" fill="#ffffff"></path><g id="SvgjsG1077"><text id="SvgjsText1078" font-family="微软雅黑" text-anchor="middle" font-size="15px" width="139px" fill="#323232" font-weight="400" align="middle" lineHeight="125%" anchor="middle" family="微软雅黑" size="15px" weight="400" font-style="" opacity="1" y="14.625" transform="rotate(0)"><tspan id="SvgjsTspan1079" dy="18" x="79.5"><tspan id="SvgjsTspan1080" style="text-decoration:;">Log(日志)</tspan></tspan></text></g></g><g id="SvgjsG1081" transform="translate(751.5,80)"><path id="SvgjsPath1082" d="M 0 4Q 0 0 4 0L 155 0Q 159 0 159 4L 159 50Q 159 54 155 54L 4 54Q 0 54 0 50Z" stroke="rgba(33,41,48,1)" stroke-width="1.5" fill-opacity="1" fill="#ffffff"></path><g id="SvgjsG1083"><text id="SvgjsText1084" font-family="微软雅黑" text-anchor="middle" font-size="15px" width="139px" fill="#323232" font-weight="400" align="middle" lineHeight="125%" anchor="middle" family="微软雅黑" size="15px" weight="400" font-style="" opacity="1" y="14.625" transform="rotate(0)"><tspan id="SvgjsTspan1085" dy="18" x="79.5"><tspan id="SvgjsTspan1086" style="text-decoration:;">Log(日志)</tspan></tspan></text></g></g><g id="SvgjsG1087" transform="translate(751.5,136)"><path id="SvgjsPath1088" d="M 0 4Q 0 0 4 0L 155 0Q 159 0 159 4L 159 50Q 159 54 155 54L 4 54Q 0 54 0 50Z" stroke="rgba(33,41,48,1)" stroke-width="1.5" fill-opacity="1" fill="#ffffff"></path><g id="SvgjsG1089"><text id="SvgjsText1090" font-family="微软雅黑" text-anchor="middle" font-size="15px" width="139px" fill="#323232" font-weight="400" align="middle" lineHeight="125%" anchor="middle" family="微软雅黑" size="15px" weight="400" font-style="" opacity="1" y="14.625" transform="rotate(0)"><tspan id="SvgjsTspan1091" dy="18" x="79.5"><tspan id="SvgjsTspan1092" style="text-decoration:;">Log(日志)</tspan></tspan></text></g></g><g id="SvgjsG1093"><path id="SvgjsPath1094" d="M615.25 52L748.8 52" stroke="#323232" stroke-width="1.5" fill="none" marker-end="url(#SvgjsMarker1095)"></path></g><g id="SvgjsG1097"><path id="SvgjsPath1098" d="M615.2499200937565 107.01094773859501L748.8002876624769 108.96058814105805" stroke="#323232" stroke-width="1.5" fill="none" marker-end="url(#SvgjsMarker1099)"></path></g><g id="SvgjsG1101"><path id="SvgjsPath1102" d="M615.2499200937565 163.010947738595L748.8002876624769 164.96058814105805" stroke="#323232" stroke-width="1.5" fill="none" marker-end="url(#SvgjsMarker1103)"></path></g><g id="SvgjsG1105" transform="translate(448,301)"><path id="SvgjsPath1106" d="M 0 0L 645 0L 645 216L 0 216Z" stroke-dasharray="10,6" stroke="rgba(33,41,48,1)" stroke-width="1.5" fill-opacity="1" fill="#ffffff"></path><g id="SvgjsG1107"><text id="SvgjsText1108" font-family="微软雅黑" text-anchor="middle" font-size="13px" width="625px" fill="#323232" font-weight="400" align="middle" lineHeight="125%" anchor="middle" family="微软雅黑" size="13px" weight="400" font-style="" opacity="1" y="97.375" transform="rotate(0)"></text></g></g><g id="SvgjsG1109"><path id="SvgjsPath1110" d="M753.2175923353499 190.25580938825L450.5380933350068 300.0790862023" stroke="#323232" stroke-width="1.5" fill="none" marker-end="url(#SvgjsMarker1111)"></path></g><g id="SvgjsG1113"><path id="SvgjsPath1114" d="M911.1346768981075 187.14096556796068L1090.7151631668128 300.2087373332054" stroke="#323232" stroke-width="1.5" fill="none" marker-end="url(#SvgjsMarker1115)"></path></g><g id="SvgjsG1117" transform="translate(462.5,319)"><path id="SvgjsPath1118" d="M 0 4Q 0 0 4 0L 209 0Q 213 0 213 4L 213 32Q 213 36 209 36L 4 36Q 0 36 0 32Z" stroke="rgba(33,41,48,1)" stroke-width="1.5" fill-opacity="1" fill="#ffffff"></path><g id="SvgjsG1119"><text id="SvgjsText1120" font-family="微软雅黑" text-anchor="middle" font-size="15px" width="193px" fill="#323232" font-weight="400" align="middle" lineHeight="125%" anchor="middle" family="微软雅黑" size="15px" weight="400" font-style="" opacity="1" y="5.625" transform="rotate(0)"><tspan id="SvgjsTspan1121" dy="18" x="106.5"><tspan id="SvgjsTspan1122" style="text-decoration:;">LogSegment（日志分段）</tspan></tspan></text></g></g><g id="SvgjsG1123" transform="translate(462.5,355)"><path id="SvgjsPath1124" d="M 0 4Q 0 0 4 0L 209 0Q 213 0 213 4L 213 32Q 213 36 209 36L 4 36Q 0 36 0 32Z" stroke="rgba(33,41,48,1)" stroke-width="1.5" fill-opacity="1" fill="#ffffff"></path><g id="SvgjsG1125"><text id="SvgjsText1126" font-family="微软雅黑" text-anchor="middle" font-size="15px" width="193px" fill="#323232" font-weight="400" align="middle" lineHeight="125%" anchor="middle" family="微软雅黑" size="15px" weight="400" font-style="" opacity="1" y="5.625" transform="rotate(0)"><tspan id="SvgjsTspan1127" dy="18" x="106.5"><tspan id="SvgjsTspan1128" style="text-decoration:;">LogSegment（日志分段）</tspan></tspan></text></g></g><g id="SvgjsG1129" transform="translate(462.5,391)"><path id="SvgjsPath1130" d="M 0 4Q 0 0 4 0L 209 0Q 213 0 213 4L 213 32Q 213 36 209 36L 4 36Q 0 36 0 32Z" stroke="rgba(33,41,48,1)" stroke-width="1.5" fill-opacity="1" fill="#ffffff"></path><g id="SvgjsG1131"><text id="SvgjsText1132" font-family="微软雅黑" text-anchor="middle" font-size="15px" width="193px" fill="#323232" font-weight="400" align="middle" lineHeight="125%" anchor="middle" family="微软雅黑" size="15px" weight="400" font-style="" opacity="1" y="5.625" transform="rotate(0)"><tspan id="SvgjsTspan1133" dy="18" x="106.5"><tspan id="SvgjsTspan1134" style="text-decoration:;">LogSegment（日志分段）</tspan></tspan></text></g></g><g id="SvgjsG1135" transform="translate(462.5,429)"><path id="SvgjsPath1136" d="M 0 4Q 0 0 4 0L 209 0Q 213 0 213 4L 213 32Q 213 36 209 36L 4 36Q 0 36 0 32Z" stroke="rgba(33,41,48,1)" stroke-width="1.5" fill-opacity="1" fill="#ffffff"></path><g id="SvgjsG1137"><text id="SvgjsText1138" font-family="微软雅黑" text-anchor="middle" font-size="15px" width="193px" fill="#323232" font-weight="400" align="middle" lineHeight="125%" anchor="middle" family="微软雅黑" size="15px" weight="400" font-style="" opacity="1" y="5.625" transform="rotate(0)"><tspan id="SvgjsTspan1139" dy="18" x="106.5"><tspan id="SvgjsTspan1140" style="text-decoration:;">LogSegment（日志分段）</tspan></tspan></text></g></g><g id="SvgjsG1141" transform="translate(846.5,336)"><path id="SvgjsPath1142" d="M 0 4Q 0 0 4 0L 209 0Q 213 0 213 4L 213 32Q 213 36 209 36L 4 36Q 0 36 0 32Z" stroke="rgba(33,41,48,1)" stroke-width="1.5" fill-opacity="1" fill="#ded9d7"></path><g id="SvgjsG1143"><text id="SvgjsText1144" font-family="微软雅黑" text-anchor="middle" font-size="15px" width="193px" fill="#323232" font-weight="400" align="middle" lineHeight="125%" anchor="middle" family="微软雅黑" size="15px" weight="400" font-style="" opacity="1" y="5.625" transform="rotate(0)"><tspan id="SvgjsTspan1145" dy="18" x="106.5"><tspan id="SvgjsTspan1146" style="text-decoration:;">.log（日志文件）</tspan></tspan></text></g></g><g id="SvgjsG1147" transform="translate(846.5,375)"><path id="SvgjsPath1148" d="M 0 4Q 0 0 4 0L 209 0Q 213 0 213 4L 213 32Q 213 36 209 36L 4 36Q 0 36 0 32Z" stroke="rgba(33,41,48,1)" stroke-width="1.5" fill-opacity="1" fill="#ded9d7"></path><g id="SvgjsG1149"><text id="SvgjsText1150" font-family="微软雅黑" text-anchor="middle" font-size="15px" width="193px" fill="#323232" font-weight="400" align="middle" lineHeight="125%" anchor="middle" family="微软雅黑" size="15px" weight="400" font-style="" opacity="1" y="5.625" transform="rotate(0)"><tspan id="SvgjsTspan1151" dy="18" x="106.5"><tspan id="SvgjsTspan1152" style="text-decoration:;">.index(偏移量索引文件）</tspan></tspan></text></g></g><g id="SvgjsG1153" transform="translate(846.5,412)"><path id="SvgjsPath1154" d="M 0 4Q 0 0 4 0L 209 0Q 213 0 213 4L 213 32Q 213 36 209 36L 4 36Q 0 36 0 32Z" stroke="rgba(33,41,48,1)" stroke-width="1.5" fill-opacity="1" fill="#ded9d7"></path><g id="SvgjsG1155"><text id="SvgjsText1156" font-family="微软雅黑" text-anchor="middle" font-size="15px" width="193px" fill="#323232" font-weight="400" align="middle" lineHeight="125%" anchor="middle" family="微软雅黑" size="15px" weight="400" font-style="" opacity="1" y="5.625" transform="rotate(0)"><tspan id="SvgjsTspan1157" dy="18" x="106.5"><tspan id="SvgjsTspan1158" style="text-decoration:;">.timeindex(时间戳索引文件)</tspan></tspan></text></g></g><g id="SvgjsG1159" transform="translate(846.5,449)"><path id="SvgjsPath1160" d="M 0 4Q 0 0 4 0L 209 0Q 213 0 213 4L 213 32Q 213 36 209 36L 4 36Q 0 36 0 32Z" stroke="rgba(33,41,48,1)" stroke-width="1.5" fill-opacity="1" fill="#ded9d7"></path><g id="SvgjsG1161"><text id="SvgjsText1162" font-family="微软雅黑" text-anchor="middle" font-size="15px" width="193px" fill="#323232" font-weight="400" align="middle" lineHeight="125%" anchor="middle" family="微软雅黑" size="15px" weight="400" font-style="" opacity="1" y="5.625" transform="rotate(0)"><tspan id="SvgjsTspan1163" dy="18" x="106.5"><tspan id="SvgjsTspan1164" style="text-decoration:;">其他文件</tspan></tspan></text></g></g><g id="SvgjsG1165"><path id="SvgjsPath1166" d="M676.2433552926858 361.1096556228106L843.8239209463311 338.6529154197227" stroke="#323232" stroke-width="1.5" fill="none" marker-end="url(#SvgjsMarker1167)"></path></g><g id="SvgjsG1169"><path id="SvgjsPath1170" d="M674.2898183695625 391.3507722576278L845.5831183815587 481.9879804582613" stroke="#323232" stroke-width="1.5" fill="none" marker-end="url(#SvgjsMarker1171)"></path></g><g id="SvgjsG1173" transform="translate(223.5,247)"><path id="SvgjsPath1174" d="M 0 4Q 0 0 4 0L 155 0Q 159 0 159 4L 159 50Q 159 54 155 54L 4 54Q 0 54 0 50Z" stroke="rgba(33,41,48,1)" stroke-width="1.5" fill-opacity="1" fill="#ffffff"></path><g id="SvgjsG1175"><text id="SvgjsText1176" font-family="微软雅黑" text-anchor="middle" font-size="15px" width="139px" fill="#323232" font-weight="400" align="middle" lineHeight="125%" anchor="middle" family="微软雅黑" size="15px" weight="400" font-style="" opacity="1" y="14.625" transform="rotate(0)"><tspan id="SvgjsTspan1177" dy="18" x="79.5"><tspan id="SvgjsTspan1178" style="text-decoration:;">Partition(分区)</tspan></tspan></text></g></g></svg>